<svg height="512" viewBox="0 0 64 64" width="512" xmlns="http://www.w3.org/2000/svg"><g id="Filled_outline" data-name="Filled outline"><path d="m33 44h-26a4 4 0 0 1 -4-4v-11h25l5 9z" fill="#f9bb4b"/><path d="m33 38h25a3 3 0 0 1 3 3 3 3 0 0 1 -3 3h-25a0 0 0 0 1 0 0v-6a0 0 0 0 1 0 0z" fill="#ffd782"/><path d="m20 17v12h4v-12h18l-3-4h-15a4 4 0 0 0 -4 4z" fill="#ffd782"/><path d="m33 38 5-5h10v5z" fill="#394d5c"/><path d="m38 27v6h4v-6-4z" fill="#143441"/><path d="m26 23a2 2 0 0 1 2 2v4a0 0 0 0 1 0 0h-4a0 0 0 0 1 0 0v-4a2 2 0 0 1 2-2z" fill="#d3843d"/><path d="m3 29h14v4h-14z" fill="#ffd782"/><path d="m11 14-3 3 2 2v10h4v-12z" fill="#4f97d5"/><path d="m28 29h3a2 2 0 0 1 2 2v7z" fill="#143441"/><circle cx="16" cy="44" fill="#394d5c" r="7"/><circle cx="16" cy="44" fill="#f4f4e6" r="3"/><circle cx="48" cy="42" fill="#7d8d9c" r="9"/><path d="m58 37h-1.353a10 10 0 0 0 -8.647-5h-5v-9a1 1 0 0 0 -1.707-.707l-1.793 1.793-1.086-1.086 1.293-1.293a1 1 0 0 0 -1.414-1.414l-4 4a1 1 0 1 0 1.414 1.414l1.293-1.293 1.086 1.086-.793.793a1 1 0 0 0 -.293.707v5.586l-3 3v-4.586a3 3 0 0 0 -3-3h-2v-3a3 3 0 0 0 -3-3 2.966 2.966 0 0 0 -1 .184v-4.184h17a1 1 0 0 0 .8-1.6l-3-4a1 1 0 0 0 -.8-.4h-15a5.006 5.006 0 0 0 -5 5v11h-4v-11a1 1 0 0 0 -.293-.707l-3-3a1 1 0 0 0 -1.414 0l-3 3a1 1 0 0 0 0 1.414l1.707 1.707v8.586h-6a1 1 0 0 0 -1 1v11a5.006 5.006 0 0 0 5 5h1.069a7.993 7.993 0 0 0 15.862 0h14.53a10 10 0 0 0 19.078 0h.461a4 4 0 0 0 0-8zm-32-13a1 1 0 0 1 1 1v3h-2v-3a1 1 0 0 1 1-1zm-5-7a3 3 0 0 1 3-3h14.5l1.5 2h-16a1 1 0 0 0 -1 1v11h-2zm-10-1.586 2 2v10.586h-2v-9a1 1 0 0 0 -.293-.707l-1.293-1.293zm-7 14.586h12v2h-12zm12 20a6 6 0 1 1 6-6 6.006 6.006 0 0 1 -6 6zm16-7h-8.069a7.993 7.993 0 0 0 -15.862 0h-1.069a3 3 0 0 1 -3-3v-6h13a1 1 0 0 0 1-1v-3h9.412l4.588 8.259zm0-8.859-2.3-4.141h1.3a1 1 0 0 1 1 1zm7-6.727 2-2v6.586h-2zm-1 14.586a10.007 10.007 0 0 0 .051 1h-4.051v-4h4.461a9.986 9.986 0 0 0 -.461 3zm-2.586-5 3-3h3.612a10.065 10.065 0 0 0 -2.673 3zm12.586 13a8 8 0 1 1 8-8 8.009 8.009 0 0 1 -8 8zm11.413-7.587a1.983 1.983 0 0 1 -1.413.587h-.051a9.951 9.951 0 0 0 -.41-4h.461a2 2 0 0 1 1.413 3.413z"/><path d="m16 40a4 4 0 1 0 4 4 4 4 0 0 0 -4-4zm0 6a2 2 0 1 1 2-2 2 2 0 0 1 -2 2z"/><path d="m20 32h2v2h-2z"/><path d="m47 36h2v12h-2z"/></g></svg>