<svg id="Layer_3" enable-background="new 0 0 64 64" height="512" viewBox="0 0 64 64" width="512" xmlns="http://www.w3.org/2000/svg"><circle cx="32" cy="32" fill="#c66b60" r="12"/><path d="m20 32c0 3.208 1.266 6.114 3.317 8.267 1.309.466 2.713.733 4.183.733 6.904 0 12.5-5.596 12.5-12.5 0-2.572-.779-4.961-2.11-6.949-1.741-.983-3.748-1.551-5.89-1.551-6.627 0-12 5.373-12 12z" fill="#e47c6e"/><path d="m40 29h-5v-5h-6v5h-5v6h5v5h6v-5h5z" fill="#fff"/><path d="m62 11h-10l-11-9h-18c-1.657 0-3 1.343-3 3 0 1.657 1.343 3 3 3h14l-3 3 12 12h16" fill="#efbe9a"/><path d="m2 53h10l11 9h18c1.657 0 3-1.343 3-3 0-1.657-1.343-3-3-3h-14l3-3-12-12h-16" fill="#efbe9a"/><path d="m26 58c-.256 0-.512-.098-.707-.293l-6-6 1.414-1.414 5.293 5.293 2.586-2.586-11-11h-15.586v-2h16c.266 0 .52.105.707.293l12 12c.391.391.391 1.023 0 1.414l-4 4c-.195.195-.451.293-.707.293z"/><path d="m41 63h-18c-.23 0-.454-.08-.633-.226l-10.724-8.774h-9.643v-2h10c.23 0 .454.08.633.226l10.724 8.774h17.643c1.103 0 2-.897 2-2s-.897-2-2-2h-14v-2h14c2.206 0 4 1.794 4 4s-1.794 4-4 4z"/><path d="m62 24h-16c-.266 0-.52-.105-.707-.293l-12-12c-.391-.391-.391-1.023 0-1.414l4-4c.391-.391 1.023-.391 1.414 0l6 6-1.414 1.414-5.293-5.293-2.586 2.586 11 11h15.586z"/><path d="m62 12h-10c-.23 0-.454-.08-.633-.226l-10.724-8.774h-17.643c-1.103 0-2 .897-2 2s.897 2 2 2h14v2h-14c-2.206 0-4-1.794-4-4s1.794-4 4-4h18c.23 0 .454.08.633.226l10.724 8.774h9.643z"/><path d="m1 38h2v18h-2z"/><path d="m61 8h2v18h-2z"/><path d="m32 45c-7.168 0-13-5.832-13-13s5.832-13 13-13 13 5.832 13 13-5.832 13-13 13zm0-24c-6.065 0-11 4.935-11 11s4.935 11 11 11 11-4.935 11-11-4.935-11-11-11z"/><path d="m35 41h-6c-.553 0-1-.447-1-1v-4h-4c-.553 0-1-.447-1-1v-6c0-.552.447-1 1-1h4v-4c0-.552.447-1 1-1h6c.553 0 1 .448 1 1v4h4c.553 0 1 .448 1 1v6c0 .553-.447 1-1 1h-4v4c0 .553-.447 1-1 1zm-5-2h4v-4c0-.553.447-1 1-1h4v-4h-4c-.553 0-1-.448-1-1v-4h-4v4c0 .552-.447 1-1 1h-4v4h4c.553 0 1 .447 1 1z"/></svg>