<svg id="Icons" enable-background="new 0 0 512 512" height="512" viewBox="0 0 512 512" width="512" xmlns="http://www.w3.org/2000/svg"><g><g><circle cx="256" cy="256" fill="#3085ce" r="256"/><path d="m47.14 404.06c46.39 65.32 122.65 107.94 208.86 107.94s162.47-42.62 208.86-107.94z" fill="#79c7fd"/></g><g><g><g><path d="m4.22 302.49v.01c1.04 5.69 2.28 11.31 3.69 16.86 1.03 4.03 2.15 8.02 3.36 11.97h219.05c7.31 0 13.22-5.92 13.22-13.22v-15.62z" fill="#c2aacf"/><path d="m4.22 302.49v.01c1.04 5.69 2.28 11.31 3.69 16.86h222.41c7.31 0 13.22-5.95 13.22-13.25v-3.62z" fill="#decee5"/></g><path d="m0 256c0 15.88 1.45 31.42 4.22 46.5h239.32v-204.55c0-8.79-7.13-15.92-15.93-15.92h-159.42c-42.31 45.67-68.19 106.8-68.19 173.97z" fill="#dd5e26"/><path d="m40.7 117.45h101.07c2.85 0 5.44-1.15 7.31-3.02 1.86-1.87 3.02-4.45 3.02-7.3 0-5.71-4.62-10.33-10.33-10.33h-86.26c-5.26 6.62-10.21 13.51-14.81 20.65z" fill="#ea792e"/><path d="m207.539 117.455h-32.172c-5.705 0-10.329-4.625-10.329-10.329 0-5.705 4.624-10.329 10.329-10.329h32.172c5.705 0 10.329 4.625 10.329 10.329 0 5.704-4.624 10.329-10.329 10.329z" fill="#ea792e"/><g><g fill="#fff"><path d="m73.319 177.001c.76.783 1.14 1.822 1.14 3.119v39.707c0 1.252-.358 2.236-1.073 2.951-2.467 2.326-6.837.778-6.573-2.951v-27.634l-11.402 21.597c-.986 1.745-2.01 2.86-3.957 2.884-1.973-.033-2.978-1.06-3.957-2.884 0 0-11.469-21.262-11.469-21.262v27.299c.246 3.611-4.18 5.338-6.573 2.951-.671-.715-1.006-1.699-1.006-2.951v-39.707c-.181-4.875 6.261-5.912 8.183-1.408 0 0 14.89 28.371 14.89 28.371l14.823-28.372c1.377-3.106 4.82-3.778 6.974-1.71z"/><path d="m93.809 221.102c-14.137-7.871-14.241-34.737-.034-42.591 6.482-3.928 17.509-3.943 23.979 0 7.438 4.383 10.503 12.371 10.497 21.262.016 8.887-3.134 16.956-10.564 21.329-6.467 3.947-17.433 3.924-23.878 0zm22.134-8.452c2.437-2.995 3.655-7.288 3.655-12.878.033-9.822-3.998-17.205-13.817-17.305-9.882.094-13.91 7.443-13.884 17.305 0 5.59 1.218 9.883 3.655 12.878 4.422 5.978 15.952 6.016 20.391 0z"/><path d="m173.726 175.76c2.775-.084 5.42 2.678 3.957 5.433 0 0-18.579 39.975-18.579 39.975-1.606 3.544-7.383 3.551-8.988 0 0 0-18.512-39.975-18.512-39.975-.268-.626-.402-1.162-.402-1.61-.002-4.035 6.555-5.334 8.116-1.543 0 0 15.427 34.274 15.427 34.274l15.427-34.274c.714-1.519 1.9-2.28 3.554-2.28z"/><path d="m184.759 222.376c-.738-.715-1.107-1.721-1.107-3.018v-39.103c0-1.296.369-2.302 1.107-3.018.738-.715 1.754-1.073 3.052-1.073h24.213c1.296 0 2.303.291 3.018.872 1.462 1.069 1.402 3.995 0 5.064-.716.604-1.722.905-3.018.905h-19.921v13.012h18.579c2.367 0 4.089.996 4.092 3.421-.01 2.367-1.763 3.359-4.092 3.354h-18.579v13.817h19.921c1.296 0 2.303.302 3.018.906 1.402 1.069 1.462 3.996 0 5.064-.716.582-1.722.872-3.018.872h-24.213c-1.298-.002-2.314-.359-3.052-1.075z"/></g></g></g><g><circle cx="115.68" cy="354.404" fill="#334353" r="64.528"/><path d="m180.214 354.392c0 32.526-24.073 59.417-55.346 63.87-31.309-4.418-55.381-31.309-55.381-63.87 0-32.526 24.073-59.417 55.381-63.869 31.273 4.452 55.346 31.377 55.346 63.869z" fill="#3e4e60"/><circle cx="115.68" cy="354.404" fill="#decee5" r="36.422"/><circle cx="115.68" cy="354.404" fill="#c2aacf" r="15.718"/><g fill="#334353"><circle cx="115.68" cy="354.404" r="5.484"/><circle cx="89.332" cy="354.404" r="5.484"/><circle cx="115.68" cy="328.334" r="5.484"/><circle cx="115.68" cy="380.474" r="5.484"/><circle cx="142.028" cy="354.404" r="5.484"/></g></g><g><path d="m236.08 330.35 193.323 51.794c7.694 2.06 15.603-2.503 17.663-10.196.175-.659.298-1.329.381-1.988.865-7.024-3.543-13.78-10.577-15.665l-193.323-51.804-3.471 12.946z" fill="#c2aacf"/><g fill="#decee5"><path d="m243.547 302.491c-1.917 7.15 2.325 14.5 9.475 16.417l188.956 50.671c1.844.494 3.687.608 5.469.381.865-7.024-3.543-13.78-10.577-15.665z"/><path d="m407.383 376.246-19.222-5.15v32.97c0 5.308 4.303 9.611 9.611 9.611 5.308 0 9.611-4.303 9.611-9.611z"/></g></g></g><g><g><path d="m351.163 179.38v66.016h55.1v-66.016c0-8.561-6.937-15.499-15.49-15.499h-24.119c-8.553.001-15.491 6.938-15.491 15.499z" fill="#aadffe"/><path d="m369.204 177.987c-1.408 0-2.55-1.142-2.55-2.55v-8.67c0-1.592 1.291-2.883 2.883-2.883h18.362c1.592 0 2.883 1.291 2.883 2.883v8.67c0 1.408-1.142 2.55-2.55 2.55h-.002c-1.279 0-2.315 1.036-2.315 2.315 0 1.216-.986 2.201-2.201 2.201h-9.993c-1.216 0-2.201-.986-2.201-2.201-.001-1.278-1.038-2.315-2.316-2.315z" fill="#79c7fd"/></g><g><path d="m359.041 93.793h39.352c7.777 0 14.082 6.305 14.082 14.082v47.808c0 2.374-2.425 3.998-4.604 3.057-4.627-1.999-13.402-4.332-29.154-4.332-15.753 0-24.527 2.333-29.154 4.332-2.179.941-4.604-.683-4.604-3.057v-47.807c.001-7.778 6.305-14.083 14.082-14.083z" fill="#9f482c"/><g><g><path d="m369.706 157.986v5.899c0 4.977 4.035 9.012 9.012 9.012 4.977 0 9.012-4.035 9.012-9.012v-5.899z" fill="#fdc8bb"/><path d="m369.706 157.986v5.094c1.222 1.147 2.637 2.041 4.171 2.644 1.527.603 3.165.924 4.841.924 3.344 0 6.569-1.274 9.012-3.567v-5.094h-18.024z" fill="#f78c87"/></g><g><path d="m351.161 113.917v19.595c0 5.452 2.383 10.628 6.524 14.173l12.021 10.3c1.05.983 2.234 1.773 3.523 2.361.216.097.432.186.648.276 1.527.603 3.165.924 4.841.924 3.344 0 6.569-1.274 9.012-3.56l12.021-10.3c4.141-3.545 6.517-8.721 6.517-14.173v-19.595c0-7.247-5.869-13.123-13.116-13.123h-28.868c-7.247-.001-13.123 5.875-13.123 13.122z" fill="#fbb3a5"/><path d="m351.161 113.917v19.595c0 5.452 2.383 10.628 6.524 14.173l12.021 10.3c1.05.983 2.234 1.773 3.523 2.361 1.289-.588 2.473-1.378 3.523-2.361l12.021-10.3c4.141-3.545 6.517-8.721 6.517-14.173v-19.595c0-7.247-5.876-13.123-13.116-13.123h-17.89c-7.247 0-13.123 5.876-13.123 13.123z" fill="#fdc8bb"/></g><path d="m350.484 122.466h.68v11.048h-.68c-3.051 0-5.524-2.473-5.524-5.524 0-3.05 2.473-5.524 5.524-5.524z" fill="#fdc8bb"/><path d="m406.949 133.515h-.68v-11.048h.68c3.051 0 5.524 2.473 5.524 5.524.001 3.05-2.473 5.524-5.524 5.524z" fill="#fbb3a5"/><path d="m376.355 133.515h4.724c1.213 0 2.195.983 2.195 2.195 0 1.213-.983 2.195-2.195 2.195h-4.724c-1.213 0-2.195-.983-2.195-2.195-.001-1.212.982-2.195 2.195-2.195z" fill="#fbb3a5"/><g><ellipse cx="365.981" cy="130.738" fill="#1a2f5d" rx="2.886" ry="3.78"/><ellipse cx="391.474" cy="130.738" fill="#1a2f5d" rx="2.886" ry="3.78"/><g><path d="m360.652 129.632c.207 0 .417-.051.611-.159 2.99-1.664 6.424-1.667 9.417-.01.608.337 1.374.117 1.711-.491s.117-1.374-.492-1.711c-1.87-1.036-3.862-1.561-5.918-1.561-2.066 0-4.064.53-5.941 1.574-.607.338-.826 1.104-.488 1.711.23.414.659.647 1.1.647z" fill="#1a2f5d"/></g><g><path d="m386.146 129.632c.207 0 .417-.051.611-.159 2.99-1.664 6.424-1.667 9.417-.01.608.337 1.374.117 1.711-.491s.117-1.374-.492-1.711c-1.87-1.036-3.862-1.561-5.918-1.561-2.066 0-4.064.53-5.941 1.574-.607.338-.826 1.104-.488 1.711.23.414.658.647 1.1.647z" fill="#1a2f5d"/></g><g><path d="m358.866 124.292c.149 0 .3-.026.448-.083 2.111-.804 4.353-1.211 6.666-1.211 2.307 0 4.542.405 6.646 1.203.648.247 1.376-.08 1.623-.73.246-.65-.08-1.376-.73-1.623-2.39-.907-4.926-1.367-7.539-1.367-2.62 0-5.165.463-7.562 1.376-.649.247-.975.974-.728 1.624.191.502.669.811 1.176.811z" fill="#9f482c"/></g><g><path d="m384.359 124.292c.149 0 .3-.026.448-.083 2.111-.804 4.353-1.211 6.667-1.211 2.307 0 4.542.405 6.646 1.203.647.247 1.376-.08 1.623-.73.246-.65-.08-1.376-.73-1.623-2.389-.907-4.926-1.367-7.539-1.367-2.621 0-5.165.463-7.563 1.376-.649.247-.975.974-.728 1.624.192.502.67.811 1.176.811z" fill="#9f482c"/></g></g><path d="m372.198 142.793h13.038c.375 0 .679.304.679.679 0 3.975-3.223 7.198-7.198 7.198-3.975 0-7.198-3.223-7.198-7.198 0-.375.304-.679.679-.679z" fill="#fff"/></g><path d="m359.868 97.986h37.692c5.651 0 10.232 4.581 10.232 10.232v1.934c0 3.66-2.967 6.627-6.627 6.627h-44.901c-3.66 0-6.627-2.967-6.627-6.627v-1.934c-.001-5.651 4.58-10.232 10.231-10.232z" fill="#a75c37"/></g><g><g><path d="m275.345 153.841v45.846c0 .712.577 1.289 1.289 1.289h73.238c.712 0 1.289-.577 1.289-1.289v-45.846c0-.712-.577-1.289-1.289-1.289h-73.238c-.712 0-1.289.577-1.289 1.289z" fill="#eea47d"/><path d="m275.345 153.841v41.977h67.549c1.717 0 3.108-1.392 3.108-3.108v-40.157h-69.369c-.711-.001-1.288.576-1.288 1.288z" fill="#f5b890"/><path d="m276.634 152.552h17.687v48.424h-17.687c-.712 0-1.289-.577-1.289-1.289v-45.847c0-.711.577-1.288 1.289-1.288z" fill="#d48d77"/><path d="m276.634 200.976h17.687v-5.159h-18.975v3.87c-.001.712.576 1.289 1.288 1.289z" fill="#c17e62"/></g><g fill="#3e4e60"><path d="m311.849 172.26v6.777h-3.535v-6.777h-2.639l4.406-7.631 4.407 7.631z"/><path d="m303.202 165.19v13.847h-3.534v-13.847h-2.639l4.406-7.63 4.406 7.63z"/></g><path d="m319.352 152.552h9.133v19.708h-9.133z" fill="#bf5e39" transform="matrix(-1 0 0 -1 647.837 324.812)"/></g><g><path d="m402.134 188.18c1.783 7.644-.868 15.643-6.858 20.714l-4.358 3.689c-4.275 3.646-10.074 5.694-16.12 5.694h-37.008v-17.302h14.099c9.42 0 18.455-3.191 25.116-8.872l12.26-10.456c3.993-3.406 9.955-1.97 11.755 2.889.31.837.783 2.226 1.114 3.644z" fill="#79c7fd"/><path d="m284.732 200.976v4.493c0 2.16 1.753 3.92 3.913 3.92h22.391v-8.413h-7.972c0-1.7-.687-3.24-1.8-4.353s-2.653-1.8-4.353-1.8h-6.026c-3.4 0-6.153 2.753-6.153 6.153z" fill="#fbb3a5"/><path d="m308.051 200.975v5.73c0 2.755 2.236 4.999 4.991 4.999h24.749v-10.729h-6.36c0-2.168-.876-4.132-2.295-5.552s-3.384-2.295-5.552-2.295h-7.685c-4.337 0-7.848 3.511-7.848 7.847z" fill="#fdc8bb"/></g><g><g><path d="m328.483 281.841 24.399 23.42 3.996 3.831 11.947-11.947-15.006-18.353c-1.349-1.648-.793-4.14 1.143-5.057l19.609-9.3c.618-.299 1.298-.453 1.988-.453 2.184 0 4.058 1.524 4.521 3.625v.021c.031.144.052.288.072.433l7.209 59.848 10.083 2.472 7.817 1.916v-86.903h-55.1l-22.678 22.678c-3.8 3.8-3.8 9.969 0 13.769z" fill="#dd5e26"/><path d="m328.483 281.841 24.399 23.42 2.029-2.029c3.46-3.46 3.738-8.97.659-12.771l-11.391-14.007c-1.349-1.658-.793-4.14 1.143-5.057l29.229-13.708c.618-.299 1.566-.698 2.256-.698 2.338 0 2.309 1.403 2.959 3.758l1.314 6.859v.021c.031.144.052.288.072.433l7.209 59.848 10.083 2.472v-84.988h-47.283l-22.678 22.678c-3.8 3.8-3.8 9.969 0 13.769z" fill="#ea792e"/></g><g><path d="m366.157 335.334 35.346 9.331c2.4.628 4.758-1.184 4.758-3.666v-8.703l-17.9-4.387-18.312-1.761c-.206-.021-.402-.031-.608-.031-2.739 0-5.18 1.813-5.953 4.49-.596 2.05.609 4.182 2.669 4.727z" fill="#334353"/><path d="m366.157 335.334 35.346 9.331c2.4.628 4.758-1.184 4.758-3.666l-42.772-10.392c-.597 2.05.608 4.182 2.668 4.727z" fill="#3e4e60"/></g><g><path d="m351.656 328.043c.752.968 1.864 1.462 2.987 1.462.999 0 2.008-.391 2.76-1.195l20.073-21.268c1.73-1.833 1.215-4.82-1.03-5.973l-7.621-3.924-11.947 11.947-5.901 10.969c-1.381 2.554-1.113 5.685.679 7.982z" fill="#334353"/><path d="m351.656 328.043c.752.968 1.864 1.462 2.987 1.462.999 0 2.008-.391 2.76-1.195l20.073-21.268c1.73-1.833 1.215-4.82-1.03-5.973z" fill="#3e4e60"/></g></g></g></g></svg>